<mxfile host="65bd71144e">
    <diagram id="E7J-FA73gHhfA6-gnP1i" name="Page-1">
        <mxGraphModel dx="775" dy="840" grid="1" gridSize="10" guides="1" tooltips="1" connect="1" arrows="1" fold="1" page="1" pageScale="1" pageWidth="850" pageHeight="1100" math="0" shadow="0">
            <root>
                <mxCell id="0"/>
                <mxCell id="1" parent="0"/>
                <mxCell id="47" value="" style="rounded=1;whiteSpace=wrap;html=1;" vertex="1" parent="1">
                    <mxGeometry x="150" y="150" width="215" height="250" as="geometry"/>
                </mxCell>
                <mxCell id="4" value="" style="group" vertex="1" connectable="0" parent="1">
                    <mxGeometry x="115" y="130" width="240" height="260" as="geometry"/>
                </mxCell>
                <mxCell id="46" value="" style="rounded=1;whiteSpace=wrap;html=1;" vertex="1" parent="4">
                    <mxGeometry x="20" y="10" width="220" height="250" as="geometry"/>
                </mxCell>
                <mxCell id="2" value="" style="rounded=1;whiteSpace=wrap;html=1;" vertex="1" parent="4">
                    <mxGeometry x="10" width="220" height="250" as="geometry"/>
                </mxCell>
                <mxCell id="3" value="Buffer Pool" style="text;html=1;strokeColor=none;fillColor=none;align=center;verticalAlign=middle;whiteSpace=wrap;rounded=0;" vertex="1" parent="4">
                    <mxGeometry x="10" width="90" height="30" as="geometry"/>
                </mxCell>
                <mxCell id="48" value="chunk 0" style="rounded=0;whiteSpace=wrap;html=1;fontColor=#F0F0F0;" vertex="1" parent="4">
                    <mxGeometry x="30" y="80" width="180" height="20" as="geometry"/>
                </mxCell>
                <mxCell id="49" value="chunk 1" style="rounded=0;whiteSpace=wrap;html=1;fontColor=#F0F0F0;" vertex="1" parent="4">
                    <mxGeometry x="30" y="110" width="180" height="20" as="geometry"/>
                </mxCell>
                <mxCell id="50" value="chunk 1" style="rounded=0;whiteSpace=wrap;html=1;fontColor=#F0F0F0;" vertex="1" parent="4">
                    <mxGeometry x="30" y="180" width="180" height="20" as="geometry"/>
                </mxCell>
                <mxCell id="51" value="..." style="text;html=1;strokeColor=none;fillColor=none;align=center;verticalAlign=middle;whiteSpace=wrap;rounded=0;fontColor=#F0F0F0;direction=west;flipV=1;flipH=1;horizontal=0;" vertex="1" parent="4">
                    <mxGeometry x="85" y="140" width="60" height="30" as="geometry"/>
                </mxCell>
                <mxCell id="52" value="chunk 是连续的内存空间" style="text;html=1;align=center;verticalAlign=middle;resizable=0;points=[];autosize=1;strokeColor=none;fillColor=none;fontColor=#F0F0F0;" vertex="1" parent="4">
                    <mxGeometry x="45" y="200" width="150" height="30" as="geometry"/>
                </mxCell>
                <mxCell id="15" style="edgeStyle=none;html=1;entryX=0.5;entryY=1;entryDx=0;entryDy=0;" edge="1" parent="1" source="5" target="11">
                    <mxGeometry relative="1" as="geometry">
                        <mxPoint x="280" y="570" as="targetPoint"/>
                        <Array as="points">
                            <mxPoint x="210" y="510"/>
                            <mxPoint x="360" y="510"/>
                        </Array>
                    </mxGeometry>
                </mxCell>
                <mxCell id="5" value="控制块" style="rounded=0;whiteSpace=wrap;html=1;fontColor=#FF9933;" vertex="1" parent="1">
                    <mxGeometry x="150" y="460" width="50" height="30" as="geometry"/>
                </mxCell>
                <mxCell id="16" style="edgeStyle=none;html=1;entryX=0.5;entryY=0;entryDx=0;entryDy=0;exitX=0.5;exitY=0;exitDx=0;exitDy=0;" edge="1" parent="1" source="6" target="10">
                    <mxGeometry relative="1" as="geometry">
                        <mxPoint x="300" y="420" as="targetPoint"/>
                        <Array as="points">
                            <mxPoint x="240" y="450"/>
                            <mxPoint x="330" y="450"/>
                        </Array>
                    </mxGeometry>
                </mxCell>
                <mxCell id="6" value="控制块" style="rounded=0;whiteSpace=wrap;html=1;fontColor=#FF9933;" vertex="1" parent="1">
                    <mxGeometry x="200" y="460" width="50" height="30" as="geometry"/>
                </mxCell>
                <mxCell id="17" style="edgeStyle=none;html=1;entryX=0.5;entryY=1;entryDx=0;entryDy=0;" edge="1" parent="1" source="7" target="12">
                    <mxGeometry relative="1" as="geometry">
                        <mxPoint x="430" y="550" as="targetPoint"/>
                        <Array as="points">
                            <mxPoint x="300" y="500"/>
                            <mxPoint x="470" y="500"/>
                        </Array>
                    </mxGeometry>
                </mxCell>
                <mxCell id="7" value="控制块" style="rounded=0;whiteSpace=wrap;html=1;fontColor=#FF9933;" vertex="1" parent="1">
                    <mxGeometry x="270" y="460" width="50" height="30" as="geometry"/>
                </mxCell>
                <mxCell id="8" value="..." style="rounded=0;whiteSpace=wrap;html=1;" vertex="1" parent="1">
                    <mxGeometry x="250" y="460" width="20" height="30" as="geometry"/>
                </mxCell>
                <mxCell id="10" value="缓冲页" style="rounded=0;whiteSpace=wrap;html=1;fontColor=#006600;" vertex="1" parent="1">
                    <mxGeometry x="320" y="460" width="50" height="30" as="geometry"/>
                </mxCell>
                <mxCell id="11" value="缓冲页" style="rounded=0;whiteSpace=wrap;html=1;fontColor=#006600;" vertex="1" parent="1">
                    <mxGeometry x="370" y="460" width="50" height="30" as="geometry"/>
                </mxCell>
                <mxCell id="12" value="缓冲页" style="rounded=0;whiteSpace=wrap;html=1;fontColor=#006600;" vertex="1" parent="1">
                    <mxGeometry x="460" y="460" width="50" height="30" as="geometry"/>
                </mxCell>
                <mxCell id="13" value="..." style="rounded=0;whiteSpace=wrap;html=1;" vertex="1" parent="1">
                    <mxGeometry x="420" y="460" width="20" height="30" as="geometry"/>
                </mxCell>
                <mxCell id="14" value="碎片" style="rounded=0;whiteSpace=wrap;html=1;fontColor=#999900;" vertex="1" parent="1">
                    <mxGeometry x="440" y="460" width="20" height="30" as="geometry"/>
                </mxCell>
                <mxCell id="31" style="edgeStyle=none;html=1;fontColor=#F0F0F0;entryX=0.5;entryY=0;entryDx=0;entryDy=0;" edge="1" parent="1" target="20">
                    <mxGeometry relative="1" as="geometry">
                        <mxPoint x="180" y="610" as="sourcePoint"/>
                        <mxPoint x="240" y="590" as="targetPoint"/>
                        <Array as="points">
                            <mxPoint x="200" y="610"/>
                            <mxPoint x="210" y="590"/>
                            <mxPoint x="250" y="590"/>
                        </Array>
                    </mxGeometry>
                </mxCell>
                <mxCell id="32" style="edgeStyle=none;html=1;fontColor=#F0F0F0;entryX=0.5;entryY=1;entryDx=0;entryDy=0;" edge="1" parent="1" source="18" target="22">
                    <mxGeometry relative="1" as="geometry">
                        <mxPoint x="420" y="710" as="targetPoint"/>
                        <Array as="points">
                            <mxPoint x="200" y="625"/>
                            <mxPoint x="210" y="640"/>
                            <mxPoint x="230" y="650"/>
                            <mxPoint x="460" y="650"/>
                        </Array>
                    </mxGeometry>
                </mxCell>
                <mxCell id="18" value="&amp;nbsp;start&amp;nbsp; &amp;nbsp;: addr&lt;br&gt;&amp;nbsp;end&amp;nbsp; &amp;nbsp; : addr&lt;br&gt;&lt;div style=&quot;&quot;&gt;&lt;span style=&quot;background-color: initial;&quot;&gt;&amp;nbsp;count : N&lt;/span&gt;&lt;/div&gt;" style="rounded=0;whiteSpace=wrap;html=1;fontColor=#F0F0F0;align=left;" vertex="1" parent="1">
                    <mxGeometry x="110" y="600" width="74" height="50" as="geometry"/>
                </mxCell>
                <mxCell id="19" value="链表基节点" style="text;html=1;align=center;verticalAlign=middle;resizable=0;points=[];autosize=1;strokeColor=none;fillColor=none;fontColor=#F0F0F0;" vertex="1" parent="1">
                    <mxGeometry x="110" y="650" width="80" height="30" as="geometry"/>
                </mxCell>
                <mxCell id="25" style="edgeStyle=none;html=1;fontColor=#F0F0F0;exitX=1;exitY=0.25;exitDx=0;exitDy=0;entryX=0;entryY=0.25;entryDx=0;entryDy=0;" edge="1" parent="1" source="20" target="21">
                    <mxGeometry relative="1" as="geometry">
                        <mxPoint x="320" y="620" as="targetPoint"/>
                    </mxGeometry>
                </mxCell>
                <mxCell id="20" value="控制块" style="rounded=0;whiteSpace=wrap;html=1;fontColor=#FF9933;" vertex="1" parent="1">
                    <mxGeometry x="240" y="610" width="50" height="30" as="geometry"/>
                </mxCell>
                <mxCell id="26" style="edgeStyle=none;html=1;entryX=1;entryY=0.75;entryDx=0;entryDy=0;fontColor=#F0F0F0;exitX=0;exitY=0.75;exitDx=0;exitDy=0;" edge="1" parent="1" source="21" target="20">
                    <mxGeometry relative="1" as="geometry"/>
                </mxCell>
                <mxCell id="27" style="edgeStyle=none;html=1;entryX=0;entryY=0.25;entryDx=0;entryDy=0;fontColor=#F0F0F0;exitX=1;exitY=0.25;exitDx=0;exitDy=0;" edge="1" parent="1" source="21" target="23">
                    <mxGeometry relative="1" as="geometry"/>
                </mxCell>
                <mxCell id="21" value="控制块" style="rounded=0;whiteSpace=wrap;html=1;fontColor=#FF9933;" vertex="1" parent="1">
                    <mxGeometry x="320" y="610" width="50" height="30" as="geometry"/>
                </mxCell>
                <mxCell id="29" style="edgeStyle=none;html=1;entryX=1;entryY=0.25;entryDx=0;entryDy=0;fontColor=#F0F0F0;exitX=0;exitY=0.25;exitDx=0;exitDy=0;" edge="1" parent="1" source="22" target="23">
                    <mxGeometry relative="1" as="geometry"/>
                </mxCell>
                <mxCell id="22" value="控制块" style="rounded=0;whiteSpace=wrap;html=1;fontColor=#FF9933;" vertex="1" parent="1">
                    <mxGeometry x="450" y="610" width="50" height="30" as="geometry"/>
                </mxCell>
                <mxCell id="28" style="edgeStyle=none;html=1;entryX=1;entryY=0.75;entryDx=0;entryDy=0;fontColor=#F0F0F0;" edge="1" parent="1" target="21">
                    <mxGeometry relative="1" as="geometry">
                        <mxPoint x="400" y="633" as="sourcePoint"/>
                    </mxGeometry>
                </mxCell>
                <mxCell id="30" style="edgeStyle=none;html=1;entryX=0;entryY=0.75;entryDx=0;entryDy=0;fontColor=#F0F0F0;exitX=1;exitY=0.75;exitDx=0;exitDy=0;" edge="1" parent="1" source="23" target="22">
                    <mxGeometry relative="1" as="geometry"/>
                </mxCell>
                <mxCell id="23" value="..." style="rounded=0;whiteSpace=wrap;html=1;" vertex="1" parent="1">
                    <mxGeometry x="400" y="610" width="20" height="30" as="geometry"/>
                </mxCell>
                <mxCell id="33" value="chunk 0:" style="text;html=1;align=center;verticalAlign=middle;resizable=0;points=[];autosize=1;strokeColor=none;fillColor=none;fontColor=#F0F0F0;" vertex="1" parent="1">
                    <mxGeometry x="85" y="460" width="70" height="30" as="geometry"/>
                </mxCell>
                <mxCell id="34" value="&amp;nbsp;start&amp;nbsp; &amp;nbsp;: addr&lt;br&gt;&amp;nbsp;end&amp;nbsp; &amp;nbsp; : addr&lt;br&gt;&lt;div style=&quot;&quot;&gt;&lt;span style=&quot;background-color: initial;&quot;&gt;&amp;nbsp;count : N&lt;/span&gt;&lt;/div&gt;" style="rounded=0;whiteSpace=wrap;html=1;fontColor=#F0F0F0;align=left;" vertex="1" parent="1">
                    <mxGeometry x="110" y="700" width="74" height="50" as="geometry"/>
                </mxCell>
                <mxCell id="35" value="&amp;nbsp;start&amp;nbsp; &amp;nbsp;: addr&lt;br&gt;&amp;nbsp;end&amp;nbsp; &amp;nbsp; : addr&lt;br&gt;&lt;div style=&quot;&quot;&gt;&lt;span style=&quot;background-color: initial;&quot;&gt;&amp;nbsp;count : N&lt;/span&gt;&lt;/div&gt;" style="rounded=0;whiteSpace=wrap;html=1;fontColor=#F0F0F0;align=left;" vertex="1" parent="1">
                    <mxGeometry x="210" y="700" width="74" height="50" as="geometry"/>
                </mxCell>
                <mxCell id="36" value="&amp;nbsp;start&amp;nbsp; &amp;nbsp;: addr&lt;br&gt;&amp;nbsp;end&amp;nbsp; &amp;nbsp; : addr&lt;br&gt;&lt;div style=&quot;&quot;&gt;&lt;span style=&quot;background-color: initial;&quot;&gt;&amp;nbsp;count : N&lt;/span&gt;&lt;/div&gt;" style="rounded=0;whiteSpace=wrap;html=1;fontColor=#F0F0F0;align=left;" vertex="1" parent="1">
                    <mxGeometry x="308" y="700" width="74" height="50" as="geometry"/>
                </mxCell>
                <mxCell id="37" value="&amp;nbsp;start&amp;nbsp; &amp;nbsp;: addr&lt;br&gt;&amp;nbsp;end&amp;nbsp; &amp;nbsp; : addr&lt;br&gt;&lt;div style=&quot;&quot;&gt;&lt;span style=&quot;background-color: initial;&quot;&gt;&amp;nbsp;count : N&lt;/span&gt;&lt;/div&gt;" style="rounded=0;whiteSpace=wrap;html=1;fontColor=#F0F0F0;align=left;" vertex="1" parent="1">
                    <mxGeometry x="410" y="700" width="74" height="50" as="geometry"/>
                </mxCell>
                <mxCell id="38" value="free 链表" style="text;html=1;align=center;verticalAlign=middle;resizable=0;points=[];autosize=1;strokeColor=none;fillColor=none;fontColor=#F0F0F0;" vertex="1" parent="1">
                    <mxGeometry x="110" y="750" width="70" height="30" as="geometry"/>
                </mxCell>
                <mxCell id="39" value="flush 链表" style="text;html=1;align=center;verticalAlign=middle;resizable=0;points=[];autosize=1;strokeColor=none;fillColor=none;fontColor=#F0F0F0;" vertex="1" parent="1">
                    <mxGeometry x="204" y="750" width="80" height="30" as="geometry"/>
                </mxCell>
                <mxCell id="40" value="LRU 链表" style="text;html=1;align=center;verticalAlign=middle;resizable=0;points=[];autosize=1;strokeColor=none;fillColor=none;fontColor=#F0F0F0;" vertex="1" parent="1">
                    <mxGeometry x="328" y="750" width="70" height="30" as="geometry"/>
                </mxCell>
                <mxCell id="41" value="其他链表" style="text;html=1;align=center;verticalAlign=middle;resizable=0;points=[];autosize=1;strokeColor=none;fillColor=none;fontColor=#F0F0F0;" vertex="1" parent="1">
                    <mxGeometry x="425" y="750" width="70" height="30" as="geometry"/>
                </mxCell>
                <mxCell id="42" value="指向控制块地址" style="text;html=1;align=center;verticalAlign=middle;resizable=0;points=[];autosize=1;strokeColor=none;fillColor=none;fontColor=#F0F0F0;" vertex="1" parent="1">
                    <mxGeometry x="180" y="570" width="110" height="30" as="geometry"/>
                </mxCell>
                <mxCell id="43" value="双向链表" style="text;html=1;align=center;verticalAlign=middle;resizable=0;points=[];autosize=1;strokeColor=none;fillColor=none;fontColor=#F0F0F0;" vertex="1" parent="1">
                    <mxGeometry x="340" y="580" width="70" height="30" as="geometry"/>
                </mxCell>
                <mxCell id="44" value="连续的内存空间" style="text;html=1;align=center;verticalAlign=middle;resizable=0;points=[];autosize=1;strokeColor=none;fillColor=none;fontColor=#F0F0F0;" vertex="1" parent="1">
                    <mxGeometry x="130" y="505" width="110" height="30" as="geometry"/>
                </mxCell>
                <mxCell id="45" value="控制块存储信息：表空间编号、页号、缓冲页地址、链表节点信息" style="text;html=1;align=center;verticalAlign=middle;resizable=0;points=[];autosize=1;strokeColor=none;fillColor=none;fontColor=#F0F0F0;" vertex="1" parent="1">
                    <mxGeometry x="130" y="520" width="370" height="30" as="geometry"/>
                </mxCell>
                <mxCell id="53" value="表空间号+页号 =&amp;gt; 缓冲页控制块地址" style="whiteSpace=wrap;html=1;fontColor=#F0F0F0;" vertex="1" parent="1">
                    <mxGeometry x="540" y="250" width="200" height="20" as="geometry"/>
                </mxCell>
                <mxCell id="54" value="表空间号+页号 =&amp;gt; 缓冲页控制块地址" style="whiteSpace=wrap;html=1;fontColor=#F0F0F0;" vertex="1" parent="1">
                    <mxGeometry x="540" y="270" width="200" height="20" as="geometry"/>
                </mxCell>
                <mxCell id="55" value="表空间号+页号 =&amp;gt; 缓冲页控制块地址" style="whiteSpace=wrap;html=1;fontColor=#F0F0F0;" vertex="1" parent="1">
                    <mxGeometry x="540" y="310" width="200" height="20" as="geometry"/>
                </mxCell>
                <mxCell id="56" value="..." style="whiteSpace=wrap;html=1;fontColor=#F0F0F0;" vertex="1" parent="1">
                    <mxGeometry x="540" y="290" width="200" height="20" as="geometry"/>
                </mxCell>
                <mxCell id="57" value="hash 表：" style="text;html=1;align=center;verticalAlign=middle;resizable=0;points=[];autosize=1;strokeColor=none;fillColor=none;fontColor=#F0F0F0;" vertex="1" parent="1">
                    <mxGeometry x="530" y="220" width="80" height="30" as="geometry"/>
                </mxCell>
            </root>
        </mxGraphModel>
    </diagram>
</mxfile>
